<?xml version="1.0" standalone="no"?>
<!DOCTYPE svg PUBLIC "-//W3C//DTD SVG 20010904//EN"
 "http://www.w3.org/TR/2001/REC-SVG-20010904/DTD/svg10.dtd">
<svg version="1.0" xmlns="http://www.w3.org/2000/svg"
 width="288.000000pt" height="288.000000pt" viewBox="0 0 288.000000 288.000000"
 preserveAspectRatio="xMidYMid meet">
<metadata>
Created by potrace 1.14, written by Peter Selinger 2001-2017
</metadata>
<g transform="translate(0.000000,288.000000) scale(0.100000,-0.100000)"
fill="#000000" stroke="none">
<path d="M1396 2320 c-57 -18 -96 -76 -96 -145 0 -19 -4 -35 -10 -35 -17 0
-11 -58 9 -77 21 -21 39 -71 34 -95 -3 -9 -16 -24 -29 -33 -25 -16 -25 -17 -7
-37 20 -24 12 -20 -56 27 -36 24 -57 30 -113 33 -70 4 -70 4 -63 -19 7 -21 4
-20 -24 9 -27 27 -40 32 -79 32 -56 0 -92 -17 -109 -50 -12 -24 -13 -24 -13
-3 0 12 13 32 28 45 16 13 36 44 46 69 9 25 32 64 51 86 19 22 31 43 27 47 -3
4 1 4 11 0 20 -7 50 13 40 29 -3 6 -1 7 5 3 7 -4 12 -14 12 -22 0 -8 9 -14 20
-14 22 0 25 11 9 43 -9 21 -9 20 11 -2 14 -16 17 -27 10 -36 -5 -6 -7 -15 -3
-18 3 -4 1 -7 -5 -7 -7 0 -12 -7 -12 -15 0 -19 34 -19 53 0 8 8 18 11 21 7 4
-4 16 4 26 18 18 24 18 25 -11 67 -30 42 -31 43 -89 43 -53 0 -70 -6 -162 -56
-57 -31 -127 -74 -156 -96 -55 -41 -112 -110 -112 -135 0 -8 -7 -30 -16 -48
-9 -19 -14 -41 -12 -51 5 -26 49 -54 109 -69 40 -9 47 -13 25 -14 l-30 -1 28
-29 c48 -50 166 -91 221 -77 26 7 105 72 105 86 0 4 -29 5 -64 3 -45 -4 -78 0
-115 12 -29 9 -50 19 -48 21 2 3 17 -1 33 -7 44 -17 173 -17 183 0 12 19 27
-11 46 -94 9 -36 24 -88 35 -115 11 -28 18 -50 15 -50 -9 0 -63 115 -75 159
-11 42 -12 43 -32 24 -30 -27 -20 -93 27 -184 93 -178 90 -170 94 -257 3 -79
-7 -144 -31 -204 l-10 -28 -259 0 -259 0 0 -180 0 -180 815 0 815 0 0 180 0
180 -264 0 -264 0 -10 28 c-23 57 -32 109 -32 180 0 68 2 73 25 84 30 14 42
50 26 84 -8 18 -8 24 2 24 6 0 -2 9 -20 20 -18 10 -41 36 -52 57 -34 64 -23
24 15 -58 43 -91 40 -113 -11 -107 -19 2 -35 0 -35 -4 0 -4 3 -8 8 -8 4 0 13
-4 21 -9 11 -7 6 -22 -28 -75 -51 -81 -57 -108 -37 -165 9 -24 16 -45 16 -47
0 -2 -73 -4 -161 -4 l-161 0 16 22 c41 57 41 57 -24 171 l-62 108 16 87 c39
210 54 235 136 225 26 -3 59 -3 72 0 39 10 66 91 34 103 -31 12 -43 79 -25
144 3 10 -3 15 -16 15 -19 0 -20 -6 -17 -102 3 -103 -6 -131 -26 -75 l-10 27
-7 -28 c-4 -15 -15 -32 -25 -37 -15 -8 -17 -6 -13 10 5 19 4 19 -23 5 -16 -8
-36 -15 -44 -15 -23 0 -60 29 -60 47 0 12 3 13 14 3 22 -17 57 -8 77 20 10 14
25 64 33 112 18 104 37 138 77 138 38 0 89 -44 72 -61 -26 -26 -12 -30 18 -5
17 14 43 27 57 27 22 1 23 3 6 6 -16 3 -20 10 -16 29 2 13 10 24 17 24 7 0 16
7 19 16 9 25 7 64 -4 64 -5 0 -10 17 -10 38 0 45 -26 99 -60 123 -31 22 -86
31 -124 19z m-246 -141 c0 -10 -3 -19 -7 -19 -5 0 -8 11 -8 24 0 13 3 22 8 19
4 -2 7 -13 7 -24z m30 6 c0 -8 -3 -16 -7 -18 -5 -3 -8 5 -8 18 0 13 3 21 8 18
4 -2 7 -10 7 -18z m-242 -1207 c3 -36 2 -38 -27 -38 -26 0 -31 4 -31 25 0 20
-5 25 -25 25 l-25 0 0 -105 0 -105 25 0 c23 0 25 4 25 40 0 22 -4 40 -10 40
-5 0 -10 7 -10 15 0 11 11 15 40 15 l40 0 0 -70 0 -70 -73 0 c-43 0 -78 5 -85
12 -17 17 -16 230 0 246 9 9 37 12 83 10 l70 -3 3 -37z m206 36 c23 -9 23
-139 1 -152 -14 -7 -14 -14 5 -56 11 -26 20 -50 20 -52 0 -3 -14 -4 -31 -2
-28 3 -34 9 -52 56 -11 28 -24 52 -28 52 -5 0 -9 -25 -9 -55 0 -54 0 -55 -30
-55 l-30 0 0 135 0 135 69 0 c38 0 76 -3 85 -6z m196 2 c0 -2 11 -58 25 -126
14 -68 25 -127 25 -131 0 -5 -13 -9 -29 -9 -25 0 -30 4 -33 28 -3 24 -7 27
-38 27 -31 0 -35 -3 -38 -27 -3 -24 -8 -28 -33 -28 -16 0 -29 3 -29 8 0 4 12
64 26 135 l27 127 49 0 c26 0 48 -2 48 -4z m145 -93 c26 -147 29 -148 51 -22
19 111 20 114 47 117 34 4 34 3 2 -144 -14 -64 -25 -117 -25 -120 0 -2 -22 -4
-49 -4 l-48 0 -23 113 c-13 61 -25 122 -28 135 -4 19 0 22 26 22 l30 0 17 -97z
m225 -38 l0 -135 -30 0 -30 0 0 135 0 135 30 0 30 0 0 -135z m274 81 c9 -30
16 -59 16 -65 0 -6 5 -11 10 -11 6 0 10 5 10 11 0 6 7 35 16 65 14 49 18 54
45 54 l29 0 -35 -96 c-19 -53 -35 -114 -35 -135 0 -37 -2 -39 -30 -39 -28 0
-30 3 -30 38 0 45 -64 230 -74 213 -4 -6 -18 -11 -32 -11 l-24 0 0 -120 0
-120 -30 0 -30 0 0 120 0 120 -25 0 c-16 0 -25 6 -25 15 0 12 19 15 114 15
l115 0 15 -54z"/>
<path d="M1050 935 c0 -52 1 -55 25 -55 24 0 25 3 25 55 0 52 -1 55 -25 55
-24 0 -25 -3 -25 -55z"/>
<path d="M1276 921 c-4 -28 -9 -58 -12 -66 -5 -11 1 -15 23 -15 l30 0 -10 58
c-12 76 -23 84 -31 23z"/>
<path d="M1701 2227 c-29 -42 -29 -43 -11 -67 10 -14 22 -22 26 -18 3 4 13 1
21 -7 15 -16 53 -21 53 -7 0 4 14 13 31 19 18 7 28 16 24 23 -4 7 -11 8 -18 2
-15 -12 -64 -27 -55 -17 4 5 3 14 -2 20 -7 9 -4 20 10 36 20 22 20 23 11 2
-16 -32 -13 -43 9 -43 11 0 20 6 20 14 0 8 5 18 12 22 6 4 8 3 5 -3 -10 -16
20 -36 40 -29 10 4 14 4 11 0 -4 -4 8 -25 27 -47 19 -22 42 -61 52 -86 9 -25
30 -58 45 -73 17 -15 27 -36 27 -50 -2 -22 -2 -22 -6 -2 -7 38 -40 57 -101 62
-54 4 -59 2 -91 -29 -29 -30 -32 -31 -26 -11 7 24 6 24 -62 20 -51 -2 -71 1
-81 12 -12 13 -13 13 -5 0 4 -8 8 -40 9 -70 0 -30 4 -66 8 -79 5 -13 4 -26 -2
-30 -5 -3 -17 -21 -26 -39 -15 -30 -21 -33 -54 -30 -40 3 -40 2 -22 -42 7 -18
17 -27 26 -23 26 10 59 -6 123 -57 34 -27 72 -55 84 -61 21 -10 21 -10 3 5
-19 16 -19 18 -3 64 9 26 17 58 17 71 0 21 4 23 34 19 25 -3 37 1 45 15 11 16
10 17 -8 8 -48 -26 -100 0 -102 50 0 13 -7 -4 -14 -37 -12 -56 -54 -153 -55
-128 0 17 42 178 52 198 6 10 13 14 17 9 3 -6 18 -3 36 8 21 13 25 19 13 19
-22 0 -23 13 -3 30 8 7 15 20 15 29 0 9 5 22 12 29 16 16 70 16 86 0 18 -18
15 -77 -3 -84 -9 -4 -14 -14 -11 -23 2 -9 8 -47 12 -86 4 -38 9 -63 11 -55 2
9 27 24 55 34 28 10 69 35 92 56 l40 38 -29 -4 c-28 -4 -29 -4 -5 5 14 5 37
12 51 15 58 13 98 71 70 101 -5 6 -14 28 -21 50 -26 84 -94 144 -268 239 -92
50 -109 56 -162 56 -58 0 -59 -1 -89 -43z m19 -22 c-7 -8 -10 -22 -6 -30 3 -9
2 -13 -4 -10 -14 8 -13 28 2 43 17 17 23 15 8 -3z m26 -20 c1 -14 -2 -25 -7
-25 -10 0 -12 33 -2 43 3 4 7 7 7 7 1 0 2 -11 2 -25z m274 -369 c0 -2 -13 -9
-30 -15 -35 -12 -41 -5 -7 9 25 10 37 12 37 6z"/>
<path d="M1035 2170 c-3 -4 6 -15 19 -24 18 -11 25 -12 29 -3 5 14 -40 40 -48
27z"/>
<path d="M1903 1630 c0 -30 2 -43 4 -27 2 15 2 39 0 55 -2 15 -4 2 -4 -28z"/>
<path d="M1972 1625 c0 -16 2 -22 5 -12 2 9 2 23 0 30 -3 6 -5 -1 -5 -18z"/>
<path d="M1983 1520 c0 -36 2 -50 4 -32 2 17 2 47 0 65 -2 17 -4 3 -4 -33z"/>
<path d="M1346 1491 c-39 -88 -42 -114 -17 -150 12 -17 33 -54 46 -83 13 -29
24 -46 24 -37 1 9 10 24 21 34 41 37 21 148 -42 236 -15 21 -3 53 18 45 8 -3
12 -2 9 4 -14 23 -34 6 -59 -49z"/>
<path d="M1890 1536 c0 -8 -6 -16 -13 -18 -11 -2 -10 -8 5 -22 18 -19 18 -19
18 17 0 20 -2 37 -5 37 -3 0 -5 -6 -5 -14z"/>
<path d="M1790 1442 c8 -5 26 -13 40 -16 17 -5 20 -4 10 2 -8 5 -26 13 -40 16
-17 5 -20 4 -10 -2z"/>
<path d="M1970 1426 c0 -9 -10 -21 -22 -26 l-23 -9 22 0 c21 -1 42 33 29 46
-3 4 -6 -1 -6 -11z"/>
<path d="M1898 1403 c7 -3 16 -2 19 1 4 3 -2 6 -13 5 -11 0 -14 -3 -6 -6z"/>
<path d="M1500 1384 c0 -8 60 -34 78 -34 11 0 23 7 26 16 9 24 8 25 -13 12
-15 -9 -28 -9 -55 -1 -20 6 -36 9 -36 7z"/>
<path d="M236 961 c5 -4 56 -50 114 -101 58 -52 106 -96 108 -100 1 -3 -47
-48 -108 -99 -60 -51 -112 -97 -115 -102 -4 -5 75 -9 199 -9 l206 0 0 49 0 50
-37 3 -38 3 -3 158 -3 157 -166 0 c-96 0 -163 -4 -157 -9z"/>
<path d="M2318 813 l-3 -158 -37 -3 -38 -3 0 -50 0 -49 206 0 c240 0 232 -12
77 118 -57 47 -102 88 -101 92 2 4 50 48 108 100 58 51 109 97 115 101 5 5
-62 9 -158 9 l-166 0 -3 -157z"/>
</g>
</svg>
